<?xml version="1.0" encoding="UTF-8"?>
<svg id="katman_1" data-name="katman 1" xmlns="http://www.w3.org/2000/svg" version="1.1" xmlns:xlink="http://www.w3.org/1999/xlink" viewBox="0 0 841.89 595.28">
  <defs>
    <style>
      .cls-1 {
        fill: #000;
      }

      .cls-1, .cls-2 {
        stroke-width: 0px;
      }

      .cls-2 {
        fill: none;
      }

      .cls-3 {
        clip-path: url(#clippath);
      }
    </style>
    <clipPath id="clippath">
      <rect class="cls-2" x="61.39" y="209.21" width="719.18" height="176.4"/>
    </clipPath>
  </defs>
  <g class="cls-3">
    <g>
      <path class="cls-1" d="M325.65,271.48v-23.37h-30.68v105.56h30.68v-53.01c0-15.51,5.8-28.22,22.31-28.22,4.18,0,9.29.93,15.32,2.78v-30.34c-27.4,0-36.7,20.14-37.62,26.61Z"/>
      <path class="cls-1" d="M251.75,323.57c0,10.19-7.44,16.9-15.32,16.9-10.23,0-16.04-8.57-16.04-19.68v-72.69h-30.25v74.54c0,21.99,9.76,32.88,29.28,32.88,23.94,0,32.31-15.05,32.31-15.05v13.2h30.44v-105.56h-30.43v75.46Z"/>
      <path class="cls-1" d="M591.52,248.11c11.39,21.53,12.08,45.37.93,78.25l-7.66,22.69-29.28-100.93h-31.4l31.4,105.56c21.85.92,25.56,3.7,25.56,7.41,0,3.94-5.58,6.48-18.82,6.71-10.72.23-23.74-1.85-35.99-4.86v18.06c6.74,3.71,15.1,4.63,22.77,4.63,32.07,0,39.06-18.52,42.53-28.22l39.74-109.26-39.78-.02Z"/>
      <path class="cls-1" d="M85.8,261.3c-.7-16.44,11.16-40.98,37.88-40.98,19.06,0,39.74,15.74,53.22,27.78v-34.26c-9.3-2.78-21.85-4.63-35.09-4.63-50.21,0-80.41,28.22-80.41,69.91s29.28,76.4,81.34,76.4c15.11,0,28.59-2.78,36.25-6.48v-27.32c-9.54,2.63-19.38,4.03-29.28,4.17-40.68,0-63.92-28.25-63.92-64.59Z"/>
      <path class="cls-1" d="M487.4,283.75c-16.97-8.33-27.19-15.04-27.19-21.3,0-5.78,5.8-9.72,14.17-9.72,16.96,0,33.93,17.36,42.53,31.95v-31.95c-1.16-.93-19.76-7.87-35.99-7.87-26.04,0-42.3,10.41-42.3,27.09,0,14.58,10.93,27.32,30.92,37.27,19.99,9.95,30.91,17.59,30.91,26.85,0,6.02-6.27,10.19-15.11,10.19-17.19,0-41.13-18.52-48.11-31.49v34.26c7.66,3.7,23.94,6.48,39.05,6.48,30.91,0,46.48-10.19,46.71-31.02.19-14.82-12.59-29.38-35.59-40.75Z"/>
      <path class="cls-1" d="M404.2,213.84c-13.02,8.1-20.45,11.11-30.45,11.34v110.66c0,13.43,9.76,19.68,29.51,19.68,8.94.04,17.74-2.19,25.57-6.48v-22.69c-7.66,5.34-31.4,16.2-39.74,16.2-3.95,0-6.28-1.39-6.28-3.71,0-3.7,5.81-9.25,21.39-15.26v-66.23h24.64v-9.26h-24.64v-34.26Z"/>
      <path class="cls-1" d="M779.37,332.9l-6.61-7.47c-11.49-12.97-26.22-29.75-33.77-38.38l-2.6-2.84-2.3-2.77c-.07-.08-1.8-2.04-4.38-5-1.26-1.43-2.71-3.1-4.27-4.91-1.84-2.12-3.83-4.43-5.82-6.77-.77-.85-1.47-1.72-2.2-2.58l-.09-.11-.04-.05-.86-1.01c-2.3-2.72-4.48-5.34-6.33-7.63-5.36-6.61-9.43-13.37-9.43-20.11,0-3.38.74-6.72,2.17-9.78,6.81-12.73,22.79-10.91,28.92-.72,1.66,3.25,2.53,6.85,2.53,10.5,0,7.22-4.66,14.49-10.6,21.53h22.25c13.5-28.64-8.55-45.48-27.64-45.48h-1.53c-22.77,0-49.78,23.94-15.62,63.31.44.47.9.92,1.34,1.37l2.11,2.43.15.17-1.59,1.77-40.95,45.34-1.1,1.24-7.99,8.87.16.12h.05c9.86,7.63,63.26,44.3,127.27.34l-1.22-1.39ZM688.78,339.7l5-8.35,7.97-12.33,7.75-12,5.84-9.03,1.83-2.83,2.76,3.93,2.97,4.23,5.23,7.44,7.82,11.13,12.16,17.31c-22.58,8.68-43.09,6.27-59.35.5h.02Z"/>
    </g>
  </g>
</svg>