<svg xmlns="http://www.w3.org/2000/svg" version="1.0" width="1296pt" height="1071pt" viewBox="-0.20332936942577362 0 1296.4066162109375 1071" preserveAspectRatio="xMidYMid meet"  xmlns:xlink="http://www.w3.org/1999/xlink"><rect id="svgEditorBackground" x="0" y="0" width="1296" height="1071" style="fill:none;stroke:none;"/>
<metadata>
Created by potrace 1.16, written by Peter Selinger 2001-2019
</metadata>

<path d="M9625,10349l-30,-8l-1,-128c-1,-115,1,-125,14,-105c21,31,57,29,71,-5c9,-24,91,-339,197,-763c14,-58,34,-134,45,-170c10,-36,28,-103,39,-150c12,-47,32,-119,45,-160c13,-41,31,-109,40,-150c9,-41,25,-106,35,-145c11,-38,31,-119,45,-180c15,-60,35,-135,45,-165c36,-109,80,-289,92,-374c5,-37,15,-80,22,-95c7,-14,16,-44,20,-66c8,-43,20,-89,62,-230c14,-49,36,-135,49,-190c13,-55,44,-181,70,-280c26,-99,51,-205,56,-235c5,-30,23,-104,39,-165c17,-60,40,-144,51,-185c12,-41,29,-109,39,-150c10,-41,28,-111,40,-155c12,-44,28,-105,36,-135c7,-30,27,-104,43,-165c17,-60,30,-119,31,-130c0,-11,9,-49,19,-85c33,-107,67,-229,94,-335c38,-147,57,-216,68,-250c25,-75,61,-204,69,-245c9,-45,21,-91,66,-250c13,-47,26,-113,30,-147c6,-59,5,-63,-14,-63c-26,0,-126,57,-205,117c-100,76,-179,156,-356,358c-203,231,-273,317,-337,415c-28,41,-59,89,-70,105c-31,44,-176,271,-218,340c-115,188,-262,466,-286,540c-7,22,-24,67,-38,100c-25,61,-37,91,-110,290c-41,110,-102,314,-102,339c0,7,-8,42,-19,77c-25,86,-52,220,-60,299c-4,36,-15,101,-23,145c-26,128,-47,333,-59,565c-6,118,-14,262,-18,320c-4,58,-4,161,0,230c5,69,15,240,24,380c8,140,22,279,30,310c7,30,17,78,21,105c3,28,18,86,32,130c13,44,35,116,47,160c29,99,64,200,99,282c30,72,30,73,13,73c-21,0,-94,-98,-312,-420c-40,-58,-92,-134,-116,-168c-24,-35,-51,-74,-59,-87c-8,-13,-64,-96,-125,-185c-60,-89,-119,-178,-130,-198c-12,-20,-65,-102,-120,-182c-127,-188,-303,-449,-385,-574c-36,-54,-72,-109,-80,-121c-8,-12,-79,-118,-157,-236c-79,-118,-199,-295,-268,-394c-69,-99,-153,-224,-188,-277c-144,-224,-244,-374,-371,-558c-75,-107,-154,-225,-176,-263c-23,-37,-63,-97,-91,-133c-27,-36,-49,-67,-49,-69c0,-2,-181,-276,-402,-609c-222,-333,-439,-663,-483,-732c-44,-69,-89,-138,-101,-152c-11,-15,-33,-49,-50,-76c-16,-26,-40,-65,-54,-86c-14,-20,-58,-86,-97,-146c-40,-60,-84,-125,-97,-144c-14,-19,-69,-102,-124,-185c-54,-82,-118,-175,-141,-205c-22,-30,-41,-60,-41,-66c0,-6,-8,-19,-19,-28c-10,-9,-32,-45,-47,-79l-29,-62l3,-315c2,-275,0,-320,-14,-352c-26,-58,-15,-72,52,-64c52,6,81,12,237,52c34,9,103,22,152,29c94,14,209,38,385,80c58,14,134,30,170,36c36,6,97,19,137,30c39,10,79,19,88,19c9,0,112,22,229,50c116,27,255,56,309,65c54,8,113,19,130,24c32,10,185,44,367,82c52,11,113,25,135,30c22,5,123,27,225,49c227,47,309,66,380,85c109,29,186,47,260,60c154,26,257,47,331,66c42,10,85,19,95,19c11,0,48,8,84,19c36,11,112,27,170,36c58,10,137,25,175,36c112,29,271,66,390,89c61,11,148,30,195,40c47,11,103,22,125,26c22,3,73,15,112,26c85,22,317,70,352,72c31,1,108,-91,179,-214c248,-431,317,-537,344,-528c35,12,11,77,-97,268c-26,47,-62,112,-80,145c-58,109,-88,160,-105,180c-28,31,-70,122,-70,148c0,43,12,48,225,92c171,35,252,71,280,126c17,32,24,35,48,17c16,-13,58,-142,71,-223c10,-56,46,-156,65,-178c8,-10,24,-17,35,-15c18,3,21,10,20,43c-1,22,-8,60,-17,85c-8,25,-20,65,-26,90c-7,25,-17,62,-23,83c-8,29,-8,52,2,93c13,53,13,55,-13,82c-14,15,-37,61,-51,102c-34,101,-102,352,-115,420c-5,30,-17,75,-25,99c-9,24,-16,54,-16,67c0,13,-9,47,-20,76c-11,29,-20,63,-20,75c0,13,-11,53,-25,90c-14,37,-44,139,-66,227c-22,89,-46,186,-55,216c-8,30,-19,75,-24,100c-5,25,-21,88,-35,140c-15,52,-31,115,-36,140c-6,25,-19,74,-29,110c-10,36,-26,99,-35,140c-10,41,-25,102,-35,135c-46,153,-59,203,-66,245c-3,25,-12,61,-19,80c-7,19,-22,73,-35,120c-12,47,-30,117,-40,155c-10,39,-25,97,-33,130c-8,33,-24,94,-36,135c-33,118,-171,656,-191,745c-10,44,-23,92,-29,107c-5,15,-28,102,-51,195c-22,92,-48,195,-56,228c-9,33,-22,85,-30,115c-7,30,-20,75,-28,100c-9,25,-57,212,-107,415c-50,204,-101,406,-114,450c-12,44,-26,98,-29,120c-4,22,-15,67,-26,100c-22,74,-59,217,-102,394c-19,82,-39,142,-50,153c-20,20,-20,20,-63,7Zm1025,-6246c37,-9,54,-45,26,-56c-15,-6,-152,-38,-351,-82c-60,-14,-171,-39,-245,-56c-215,-49,-528,-115,-655,-139c-284,-53,-402,-78,-425,-90c-11,-6,-50,-15,-87,-20c-38,-5,-122,-21,-188,-35c-400,-88,-583,-125,-619,-125c-17,0,-62,-8,-101,-19c-103,-28,-242,-60,-310,-71c-33,-6,-98,-19,-145,-30c-47,-11,-116,-24,-155,-30c-38,-6,-99,-20,-135,-30c-36,-10,-81,-21,-100,-25c-19,-3,-75,-15,-125,-25c-49,-10,-139,-28,-200,-40c-60,-12,-155,-33,-210,-46c-55,-13,-143,-31,-195,-39c-52,-9,-129,-25,-170,-35c-41,-10,-120,-28,-175,-40c-55,-12,-136,-30,-180,-40c-86,-20,-257,-55,-315,-65c-19,-3,-63,-13,-98,-21c-66,-16,-102,-12,-102,11c0,38,218,174,401,250c74,31,186,78,249,104c63,27,126,52,140,56c14,4,43,15,65,25c98,43,533,183,620,199c28,6,79,19,115,30c151,47,527,137,675,162c33,5,85,16,115,24c154,39,231,56,285,65c77,12,196,35,310,60c50,11,108,20,130,20c37,0,130,14,390,60c150,26,314,47,475,60c74,6,169,16,210,21c41,6,134,15,205,19c158,10,826,4,875,-7Z" style="fill:#000080;" transform="matrix(0.1 0 0 -0.1 0 1071)"/><path d="M9430,10279c-30,-11,-69,-26,-87,-34c-17,-8,-37,-15,-45,-15c-7,0,-26,-8,-43,-18c-16,-10,-50,-24,-75,-31c-25,-7,-65,-23,-90,-36c-25,-12,-63,-28,-85,-34c-38,-12,-87,-30,-344,-131c-57,-22,-108,-40,-115,-40c-6,0,-37,-13,-68,-30c-31,-16,-105,-47,-165,-69c-297,-107,-411,-149,-438,-163c-16,-9,-52,-23,-80,-31c-27,-8,-81,-28,-120,-44c-38,-16,-104,-42,-145,-58c-41,-15,-102,-39,-135,-53c-33,-13,-89,-34,-125,-47c-36,-12,-146,-55,-245,-95c-99,-39,-209,-83,-245,-97c-36,-14,-96,-38,-135,-55c-38,-17,-90,-36,-115,-44c-64,-19,-128,-41,-180,-64c-25,-10,-76,-31,-115,-46c-38,-14,-115,-45,-170,-69c-55,-23,-125,-50,-155,-60c-30,-9,-82,-30,-115,-45c-33,-16,-82,-34,-109,-41c-28,-7,-86,-28,-130,-46c-251,-106,-466,-184,-511,-187c-38,-1,-42,16,-44,184c-1,130,-10,169,-29,133c-11,-21,-42,-278,-42,-353c0,-34,-7,-56,-24,-81c-14,-19,-37,-53,-53,-77c-15,-24,-53,-75,-83,-114c-30,-40,-84,-115,-120,-169c-36,-53,-117,-170,-180,-258c-304,-428,-378,-532,-425,-601c-28,-41,-100,-140,-159,-220c-60,-80,-115,-158,-123,-175c-9,-16,-80,-115,-158,-220c-78,-104,-180,-248,-227,-320c-47,-71,-97,-141,-112,-154c-14,-14,-26,-30,-26,-36c0,-7,-19,-36,-42,-66c-24,-29,-77,-103,-118,-164c-41,-62,-114,-168,-162,-236c-48,-68,-118,-169,-154,-224c-37,-55,-83,-120,-103,-145c-36,-44,-126,-174,-463,-668c-239,-350,-333,-486,-403,-582c-33,-45,-112,-157,-175,-249c-63,-92,-151,-217,-196,-277c-44,-60,-109,-152,-144,-204c-35,-52,-98,-142,-140,-200c-43,-58,-96,-137,-120,-175l-42,-70l5,-81c2,-44,11,-90,18,-102c20,-33,87,-62,181,-78c119,-21,346,-98,463,-157c155,-77,354,-194,421,-248c203,-161,385,-433,419,-625c37,-210,14,-248,-170,-283c-115,-23,-171,-30,-334,-46c-177,-16,-565,-19,-666,-5c-33,5,-122,15,-197,21c-150,14,-166,11,-154,-34c7,-30,31,-40,166,-67c96,-20,137,-22,485,-22c306,-1,397,2,465,15c47,8,110,18,140,22c30,3,75,12,100,20c25,7,65,16,90,19c101,13,358,80,415,107c59,29,220,75,342,99c60,12,128,26,153,32c26,6,174,11,345,11c240,0,314,-3,370,-16c39,-9,131,-30,205,-46c74,-17,167,-39,205,-50c39,-11,90,-24,115,-30c25,-6,88,-23,140,-37c52,-14,112,-30,132,-34c21,-4,43,-12,50,-17c19,-14,156,-61,203,-69c22,-4,58,-13,79,-21c82,-28,315,-53,499,-53c252,0,421,25,610,92c78,27,196,67,262,88c66,22,188,61,270,89c262,87,247,84,481,84c154,-1,229,-5,280,-17c134,-30,230,-47,339,-61c61,-7,172,-30,248,-49c187,-49,364,-64,559,-48c79,7,168,19,198,27c30,8,113,29,184,45c72,17,150,37,175,45c26,8,100,33,166,54c252,82,492,105,656,61c41,-11,85,-20,99,-20c14,0,77,-18,140,-40c63,-22,125,-40,137,-40c12,0,45,9,73,20c72,28,110,26,155,-10c66,-53,95,-56,273,-32c87,12,189,31,227,42c184,55,252,71,440,107c127,24,162,27,390,27c281,1,365,-11,583,-81c127,-40,150,-37,113,16c-40,56,-78,71,-182,71c-91,0,-97,2,-167,40l-73,40l-240,2c-168,2,-243,6,-250,14c-11,14,5,98,25,129c7,11,16,33,20,49c9,36,97,213,164,330c108,187,244,351,357,432c42,29,67,55,74,76c13,37,14,207,2,227c-7,11,-25,9,-102,-15c-101,-32,-99,-30,-177,-161c-62,-104,-334,-403,-366,-403c-9,0,-30,13,-47,28c-24,21,-31,36,-31,63c0,53,21,85,111,171c69,65,87,90,120,161c24,51,59,107,90,141c41,45,51,63,51,92c0,19,18,90,40,157c21,67,44,151,49,187c6,36,15,80,20,98c5,17,13,67,16,110c6,69,5,80,-14,104c-12,15,-37,32,-56,38c-29,9,-41,8,-83,-10c-57,-25,-59,-24,-154,46c-33,24,-74,46,-92,50c-40,7,-91,-16,-157,-72c-70,-59,-121,-77,-219,-78c-56,0,-103,6,-139,18c-61,21,-101,11,-101,-24c0,-25,39,-43,138,-65c37,-8,112,-38,167,-65c80,-40,119,-53,195,-65c135,-21,135,-21,135,-193c-1,-160,-20,-247,-85,-375c-72,-140,-123,-192,-305,-310c-100,-65,-395,-156,-558,-172c-37,-4,-82,-11,-100,-16c-64,-19,-479,-50,-797,-59c-179,-6,-358,-15,-399,-20c-41,-6,-192,-15,-335,-20c-144,-6,-355,-15,-471,-20c-294,-14,-720,-13,-1360,5c-302,8,-786,19,-1075,25c-289,6,-543,15,-565,20c-22,4,-141,11,-265,15c-301,9,-449,20,-483,35l-27,13l0,184c0,107,4,192,10,204c6,10,24,26,41,35c30,15,31,16,11,30c-11,8,-31,31,-44,51l-23,38l-9,2465c-6,1502,-6,2582,0,2765c9,290,10,302,34,350c41,82,81,73,140,-31l30,-52l-10,-1048c-11,-1157,-13,-3283,-4,-3308c12,-31,44,-16,89,42c51,64,136,186,335,487c74,112,191,285,260,385c69,99,184,269,257,378c72,108,139,206,147,217c9,11,104,153,211,315c107,162,222,331,255,375c34,44,84,116,112,160c28,44,65,98,82,120c18,22,53,74,77,115c24,41,82,127,129,190c89,119,174,241,206,297c11,17,62,93,114,168c52,76,106,154,119,174c13,20,90,134,170,253c80,120,160,239,178,265c60,90,93,138,255,376c232,339,577,848,591,873c36,61,58,95,116,177c35,49,138,203,228,341c91,138,181,274,200,301c19,28,59,86,88,130c29,44,62,89,74,99c44,40,25,44,-59,15Zm-4508,-2001c15,-30,16,-124,1,-793c-17,-756,-33,-2440,-33,-3506c0,-487,-3,-1055,-7,-1262l-6,-376l-24,-6c-52,-13,-708,27,-993,60c-69,8,-224,21,-345,30c-121,8,-272,20,-335,26c-63,5,-189,16,-280,24c-91,8,-187,19,-215,25c-27,5,-95,14,-150,20c-55,7,-127,18,-160,25c-33,7,-96,16,-139,20c-44,3,-107,12,-140,20c-34,7,-90,16,-126,20c-85,8,-276,47,-425,86c-66,17,-136,35,-155,39c-67,16,-236,77,-257,93c-23,17,-14,64,21,113c114,160,259,369,308,443c31,47,80,118,108,156c79,107,189,265,296,425c99,147,294,426,345,491c15,19,30,46,34,60c3,13,30,56,60,94c30,39,94,125,142,193c48,68,122,169,163,225c41,56,147,210,235,342c89,132,182,269,206,303c57,83,67,98,110,169c20,32,51,80,70,105c19,26,47,68,64,95c16,26,64,93,106,148c41,55,82,111,89,125c7,14,39,61,71,105c152,208,189,260,189,267c0,10,149,215,219,302c31,38,70,93,86,123c17,29,52,83,78,118c26,36,99,140,161,232c61,93,141,207,177,255c35,48,73,101,84,117c157,238,328,471,345,471c5,0,15,-10,22,-22Zm6788,-5978c15,-15,20,-33,20,-78c0,-95,-64,-196,-155,-241l-44,-22l-40,20c-47,25,-56,46,-40,103c23,88,107,191,182,223c43,19,54,18,77,-5Zm-291,-426c40,-51,20,-124,-46,-169c-51,-34,-90,-34,-99,1c-10,38,23,132,56,166c35,35,63,36,89,2Z" style="fill:#000080;" transform="matrix(0.1 0 0 -0.1 0 1071)"/><path d="M10281,3478c-13,-7,-39,-35,-57,-63c-18,-27,-55,-73,-83,-100c-65,-66,-73,-96,-35,-137c16,-16,49,-39,73,-51c25,-12,47,-27,48,-33c2,-6,-19,-38,-47,-70c-76,-89,-78,-106,-33,-200c21,-44,36,-86,34,-94c-1,-8,-15,-30,-31,-50c-35,-45,-43,-70,-34,-115c10,-56,46,-70,174,-69c82,1,123,7,190,27c100,31,130,57,130,117c0,34,-7,46,-60,98l-60,60l0,84c0,64,5,92,20,121c11,20,20,48,20,61c0,84,24,105,94,81c55,-20,75,-19,113,5c88,53,24,170,-94,170c-50,0,-61,8,-98,71c-45,77,-70,92,-162,96c-52,3,-86,0,-102,-9Z" style="fill:#000080;" transform="matrix(0.1 0 0 -0.1 0 1071)"/><path d="M11447,3373c-20,-19,-9,-74,79,-390c13,-49,35,-73,64,-73c20,0,6,105,-34,254c-48,182,-79,240,-109,209Z" style="fill:#000080;" transform="matrix(0.1 0 0 -0.1 0 1071)"/><path d="M10973,3030c-13,-5,-23,-12,-23,-15c0,-11,76,-160,118,-232c70,-119,85,-133,146,-133c29,0,74,6,101,14c59,18,151,79,160,105c17,54,-81,161,-198,216c-100,47,-245,68,-304,45Z" style="fill:#000080;" transform="matrix(0.1 0 0 -0.1 0 1071)"/><path d="M10570,2952c0,-75,63,-122,164,-122c67,0,88,17,84,69c-2,28,-8,37,-28,42c-86,23,-159,41,-187,46c-33,5,-33,5,-33,-35Z" style="fill:#000080;" transform="matrix(0.1 0 0 -0.1 0 1071)"/><path d="M12140,1336c-47,-13,-116,-33,-155,-45c-105,-32,-174,-35,-330,-16c-138,17,-228,15,-266,-6c-27,-14,-24,-56,7,-84c33,-31,89,-33,185,-8c63,16,70,16,128,0c34,-10,94,-20,134,-23c79,-7,77,-7,267,72c113,47,117,48,250,53c126,6,135,7,135,26c0,33,-50,49,-165,52c-87,3,-120,-1,-190,-21Z" transform="matrix(0.1 0 0 -0.1 0 1071)" style="fill:#000080;"/><path d="M9435,1153c-45,-7,-146,-41,-172,-58c-13,-9,-23,-23,-23,-31c0,-14,11,-15,78,-11c42,2,109,10,147,17c111,20,331,7,501,-28c261,-56,344,-67,469,-66c243,2,409,54,353,111c-14,13,-38,13,-204,3c-245,-16,-381,-9,-564,31c-132,28,-164,32,-350,34c-113,2,-218,1,-235,-2Z" transform="matrix(0.1 0 0 -0.1 0 1071)" style="fill:#000080;"/><path d="M3526,1077c-67,-22,-126,-62,-126,-86c0,-6,10,-16,23,-22c18,-8,53,-4,153,18c119,26,144,28,329,27c110,-1,229,-7,265,-13c36,-7,94,-16,130,-22c36,-5,88,-16,115,-24c126,-36,265,-55,411,-55l146,0l-7,28c-3,15,-10,31,-15,35c-4,5,-70,12,-147,16c-77,4,-144,11,-150,14c-6,4,-102,28,-214,54l-204,47l-320,3c-310,2,-322,2,-389,-20Z" transform="matrix(0.1 0 0 -0.1 0 1071)" style="fill:#000080;"/><path d="M6998,1036c-69,-27,-227,-56,-441,-81c-116,-14,-215,-29,-220,-34c-16,-16,15,-60,51,-72c56,-18,225,6,452,64c158,41,246,51,430,51c102,0,255,-6,341,-14c148,-12,159,-12,214,6c33,10,60,24,62,30c2,6,-5,21,-15,34l-19,23l-409,4c-338,2,-415,1,-446,-11Z" transform="matrix(0.1 0 0 -0.1 0 1071)" style="fill:#000080;"/><path d="M12383,1031c-67,-3,-124,-9,-128,-13c-22,-22,57,-58,125,-58c55,0,190,36,190,51c0,11,-35,30,-52,27c-7,-1,-68,-4,-135,-7Z" transform="matrix(0.1 0 0 -0.1 0 1071)" style="fill:#000080;"/><path d="M2800,934c-36,-8,-110,-21,-164,-29c-94,-13,-115,-22,-116,-52c0,-6,8,-19,17,-29c25,-24,218,-15,283,14c25,11,66,23,92,26c26,4,59,17,74,28l27,22l-23,18c-27,22,-95,23,-190,2Z" transform="matrix(0.1 0 0 -0.1 0 1071)" style="fill:#000080;"/><path d="M2132,920c-35,-14,-222,-30,-355,-30c-125,0,-157,-8,-157,-41c0,-14,13,-26,46,-41c40,-17,61,-19,148,-15c56,3,156,12,224,21c198,25,240,42,228,89c-6,25,-10,27,-59,26c-28,0,-62,-4,-75,-9Z" style="fill:#000080;" transform="matrix(0.1 0 0 -0.1 0 1071)"/><path d="M9470,843c-66,-11,-162,-13,-429,-10c-310,4,-352,2,-415,-14c-42,-11,-111,-19,-166,-20c-156,-2,-224,-11,-228,-31c-2,-9,7,-27,19,-39c21,-21,27,-21,168,-17c80,3,158,10,173,16c15,6,69,19,120,28c105,18,215,15,391,-11c91,-14,126,-15,215,-5c142,15,231,38,260,67c26,27,25,47,-4,49c-10,1,-57,-5,-104,-13Z" transform="matrix(0.1 0 0 -0.1 0 1071)" style="fill:#000080;"/><path d="M10702,818c-35,-35,1,-79,98,-119c83,-34,62,-33,667,-43c230,-3,243,-3,248,15c13,39,-4,57,-73,80c-62,21,-73,21,-167,10c-55,-6,-191,-11,-302,-11l-203,0l-102,34c-135,44,-152,48,-166,34Z" transform="matrix(0.1 0 0 -0.1 0 1071)" style="fill:#000080;"/><path d="M7590,724c-7,-17,-7,-32,0,-45c10,-17,21,-19,108,-18c53,1,124,4,157,8l60,6l3,38l3,37l-161,0l-160,0l-10,-26Z" transform="matrix(0.1 0 0 -0.1 0 1071)" style="fill:#000080;"/><path d="M3649,706c-3,-3,-37,-10,-75,-15c-147,-21,-216,-73,-165,-124c33,-33,146,-29,311,10c88,21,240,21,385,0c410,-58,627,-63,748,-15c24,9,28,16,25,42l-3,31l-230,8c-126,4,-277,14,-334,23c-57,8,-151,20,-210,25c-130,13,-444,23,-452,15Z" transform="matrix(0.1 0 0 -0.1 0 1071)" style="fill:#000080;"/><path d="M5413,670c-27,-11,-42,-58,-22,-71c8,-5,120,-8,249,-6l235,2l0,35c0,33,-2,35,-40,42c-58,10,-396,8,-422,-2Z" transform="matrix(0.1 0 0 -0.1 0 1071)" style="fill:#000080;"/><path d="M6518,634c-14,-13,-8,-61,9,-75c20,-17,367,-19,384,-2c14,14,2,50,-19,62c-22,11,-365,25,-374,15Z" transform="matrix(0.1 0 0 -0.1 0 1071)" style="fill:#000080;"/><path d="M1518,585c-95,-19,-129,-41,-96,-61c7,-4,53,-8,103,-9c49,-1,155,-5,235,-9c127,-7,155,-5,225,12c71,17,80,22,80,42c0,38,-25,45,-103,30c-65,-12,-137,-11,-327,5c-27,2,-80,-2,-117,-10Z" style="fill:#000080;" transform="matrix(0.1 0 0 -0.1 0 1071)"/><path d="M636,544c-32,-24,-44,-40,-38,-46c7,-7,88,-9,221,-6c200,3,212,4,232,25c42,41,23,49,-133,56c-235,11,-229,12,-282,-29Z" style="fill:#000080;" transform="matrix(0.1 0 0 -0.1 0 1071)"/></svg>